<svg width="77" height="551" viewBox="0 0 77 551" fill="none" xmlns="http://www.w3.org/2000/svg">
<path d="M75 480.916L77 480.916L77 478.093L74.3368 479.029L75 480.916ZM75 497.115L75.6558 499.004L77 498.538L77 497.115L75 497.115ZM60.2227 502.244L59.5669 500.354L58.2227 500.821L58.2227 502.244L60.2227 502.244ZM60.2227 529.666L58.2227 529.666L58.2227 531.088L59.5669 531.555L60.2227 529.666ZM75 534.795L77 534.795L77 533.372L75.6558 532.905L75 534.795ZM75 550.994L74.3368 552.881L77 553.817L77 550.994L75 550.994ZM2.17969 525.4L0.179686 525.4L0.179686 526.817L1.51652 527.287L2.17969 525.4ZM2.17969 506.509L1.51652 504.623L0.179685 505.092L0.179686 506.509L2.17969 506.509ZM25.9961 518.037L25.3331 519.924L25.3419 519.927L25.3507 519.93L25.9961 518.037ZM46.1055 524.892L45.4601 526.785L48.1055 527.687L48.1055 524.892L46.1055 524.892ZM46.1055 507.017L48.1055 507.017L48.1055 504.222L45.4601 505.124L46.1055 507.017ZM25.9961 513.873L25.3507 511.98L25.3392 511.984L25.3278 511.988L25.9961 513.873ZM20.1055 515.955L19.473 514.057L14.2933 515.784L19.3627 517.812L20.1055 515.955ZM73 480.916L73 497.115L77 497.115L77 480.916L73 480.916ZM74.3442 495.225L59.5669 500.354L60.8784 504.133L75.6558 499.004L74.3442 495.225ZM58.2227 502.244L58.2227 529.666L62.2227 529.666L62.2227 502.244L58.2227 502.244ZM59.5669 531.555L74.3442 536.684L75.6558 532.905L60.8784 527.776L59.5669 531.555ZM73 534.795L73 550.994L77 550.994L77 534.795L73 534.795ZM75.6632 549.107L2.84285 523.513L1.51652 527.287L74.3368 552.881L75.6632 549.107ZM4.17969 525.4L4.17969 506.509L0.179686 506.509L0.179686 525.4L4.17969 525.4ZM2.84285 508.396L75.6632 482.802L74.3368 479.029L1.51652 504.623L2.84285 508.396ZM25.3507 519.93L45.4601 526.785L46.7508 522.999L26.6414 516.144L25.3507 519.93ZM48.1055 524.892L48.1055 507.017L44.1055 507.017L44.1055 524.892L48.1055 524.892ZM45.4601 505.124L25.3507 511.98L26.6414 515.766L46.7508 508.91L45.4601 505.124ZM25.3278 511.988C23.466 512.648 22.0448 513.151 21.064 513.498C20.5734 513.671 20.1938 513.805 19.9246 513.9C19.7898 513.947 19.6837 513.984 19.6057 514.011C19.5666 514.025 19.5355 514.036 19.5119 514.044C19.5001 514.048 19.4909 514.051 19.4838 514.054C19.4803 514.055 19.4776 514.056 19.4757 514.056C19.4737 514.057 19.4729 514.057 19.473 514.057L20.7379 517.852C20.9649 517.776 22.9595 517.071 26.6644 515.758L25.3278 511.988ZM19.3627 517.812C19.5845 517.9 21.6198 518.619 25.3331 519.924L26.6591 516.15C24.7805 515.49 23.3515 514.987 22.3716 514.64C21.8813 514.467 21.505 514.334 21.2415 514.239C20.9521 514.136 20.8459 514.097 20.8482 514.098L19.3627 517.812ZM75 466.047L75 468.047L77 468.047L77 466.047L75 466.047ZM2.17968 466.047L0.179684 466.047L0.179684 468.047L2.17968 468.047L2.17968 466.047ZM7.15624 423.898L8.65554 425.222L8.6614 425.215L7.15624 423.898ZM34.7305 427.656L32.9455 428.558L34.9997 432.623L36.6025 428.36L34.7305 427.656ZM68.8555 421.41L70.3448 420.075L70.3393 420.069L68.8555 421.41ZM15.5352 450.66L13.5352 450.66L13.5352 452.66L15.5352 452.66L15.5352 450.66ZM29.957 450.66L29.957 452.66L31.957 452.66L31.957 450.66L29.957 450.66ZM28.1289 435.02L29.5985 433.663L29.5971 433.661L28.1289 435.02ZM17.4141 435.02L18.8823 436.378L18.8915 436.368L18.9006 436.357L17.4141 435.02ZM42.4492 450.66L40.4492 450.66L40.4492 452.66L42.4492 452.66L42.4492 450.66ZM60.832 450.66L60.832 452.66L62.832 452.66L62.832 450.66L60.832 450.66ZM73 439.844L73 466.047L77 466.047L77 439.844L73 439.844ZM75 464.047L2.17968 464.047L2.17968 468.047L75 468.047L75 464.047ZM4.17968 466.047L4.17968 438.676L0.179683 438.676L0.179684 466.047L4.17968 466.047ZM4.17968 438.676C4.17968 432.96 5.72652 428.54 8.65553 425.222L5.65696 422.575C1.95055 426.773 0.179682 432.205 0.179683 438.676L4.17968 438.676ZM8.6614 425.215C11.6201 421.834 15.144 420.211 19.3437 420.211L19.3437 416.211C13.9289 416.211 9.32781 418.379 5.65109 422.581L8.6614 425.215ZM19.3437 420.211C22.5779 420.211 25.2528 420.927 27.4508 422.277C29.6484 423.626 31.4922 425.683 32.9455 428.558L36.5155 426.754C34.7864 423.333 32.4746 420.667 29.5434 418.868C26.6125 417.069 23.1851 416.211 19.3437 416.211L19.3437 420.211ZM36.6025 428.36C38.143 424.263 40.2546 421.345 42.8549 419.445C45.4441 417.552 48.6723 416.555 52.6562 416.555L52.6562 412.555C47.9736 412.555 43.8808 413.741 40.4946 416.215C37.1198 418.682 34.6017 422.316 32.8584 426.952L36.6025 428.36ZM52.6562 416.555C58.8124 416.555 63.6544 418.638 67.3716 422.751L70.3393 420.069C65.7961 415.042 59.8386 412.555 52.6562 412.555L52.6562 416.555ZM67.3661 422.745C71.0553 426.861 73 432.486 73 439.844L77 439.844C77 431.764 74.8484 425.1 70.3448 420.075L67.3661 422.745ZM15.5352 452.66L29.957 452.66L29.957 448.66L15.5352 448.66L15.5352 452.66ZM31.957 450.66L31.957 440.352L27.957 440.352L27.957 450.66L31.957 450.66ZM31.957 440.352C31.957 437.742 31.2362 435.437 29.5985 433.663L26.6593 436.376C27.4591 437.243 27.957 438.492 27.957 440.352L31.957 440.352ZM29.5971 433.661C27.8651 431.789 25.4544 430.988 22.6953 430.988L22.6953 434.988C24.6758 434.988 25.8875 435.542 26.6607 436.378L29.5971 433.661ZM22.6953 430.988C19.9862 430.988 17.6208 431.8 15.9275 433.682L18.9006 436.357C19.6449 435.531 20.8002 434.988 22.6953 434.988L22.6953 430.988ZM15.9459 433.661C14.2874 435.454 13.5352 437.75 13.5352 440.352L17.5352 440.352C17.5352 438.552 18.0356 437.293 18.8823 436.378L15.9459 433.661ZM13.5352 440.352L13.5352 450.66L17.5352 450.66L17.5352 440.352L13.5352 440.352ZM42.4492 452.66L60.832 452.66L60.832 448.66L42.4492 448.66L42.4492 452.66ZM62.832 450.66L62.832 440.656L58.832 440.656L58.832 450.66L62.832 450.66ZM62.832 440.656C62.832 436.847 62.0264 433.617 60.0684 431.322C58.0586 428.966 55.137 427.941 51.6914 427.941L51.6914 431.941C54.3395 431.941 55.9883 432.703 57.0253 433.918C58.1142 435.195 58.832 437.322 58.832 440.656L62.832 440.656ZM51.6914 427.941C48.2189 427.941 45.2742 428.962 43.2453 431.314C41.2652 433.609 40.4492 436.843 40.4492 440.656L44.4492 440.656C44.4492 437.326 45.1736 435.202 46.2742 433.926C47.326 432.707 49.0024 431.941 51.6914 431.941L51.6914 427.941ZM40.4492 440.656L40.4492 450.66L44.4492 450.66L44.4492 440.656L40.4492 440.656ZM73.6797 348.092L75.5299 347.333L75.527 347.326L73.6797 348.092ZM73.6797 376.885L75.5271 377.651L75.5319 377.64L73.6797 376.885ZM65.9609 388.819L67.3895 390.218L67.3966 390.211L67.4037 390.204L65.9609 388.819ZM53.9258 396.842L54.6978 398.687L54.7025 398.685L53.9258 396.842ZM23.3047 396.842L24.0814 394.999L24.0767 394.997L23.3047 396.842ZM11.2695 388.819L12.7053 387.426L12.7051 387.426L11.2695 388.819ZM3.55077 348.092L5.40099 348.852L5.40296 348.847L3.55077 348.092ZM11.2695 336.159L12.7051 337.551L12.7123 337.544L11.2695 336.159ZM23.3047 328.135L24.0655 329.985L24.0735 329.982L24.0814 329.978L23.3047 328.135ZM53.9258 328.135L53.1538 329.98L53.1603 329.983L53.9258 328.135ZM65.9609 336.159L67.4037 334.773L67.3965 334.766L65.9609 336.159ZM55.5 378.155L56.8746 379.607L56.8804 379.602L55.5 378.155ZM55.5 346.823L54.1196 348.27L54.1254 348.275L55.5 346.823ZM21.6797 346.823L23.0542 348.275L23.0601 348.27L21.6797 346.823ZM21.6797 378.155L20.2992 379.602L20.3051 379.607L21.6797 378.155ZM71.8295 348.852C73.5897 353.14 74.4726 357.672 74.4726 362.463L78.4726 362.463C78.4726 357.166 77.4936 352.117 75.5299 347.333L71.8295 348.852ZM74.4726 362.463C74.4726 367.255 73.5897 371.805 71.8275 376.131L75.5319 377.64C77.4936 372.824 78.4726 367.76 78.4726 362.463L74.4726 362.463ZM71.8323 376.119C70.0265 380.472 67.5868 384.237 64.5182 387.434L67.4037 390.204C70.8351 386.629 73.5412 382.439 75.527 377.651L71.8323 376.119ZM64.5324 387.419C61.4514 390.564 57.6677 393.095 53.1491 394.999L54.7025 398.685C59.663 396.595 63.9028 393.777 67.3895 390.218L64.5324 387.419ZM53.1538 394.997C48.6378 396.887 43.7897 397.838 38.5898 397.838L38.5898 401.838C44.2911 401.838 49.6669 400.792 54.6978 398.687L53.1538 394.997ZM38.5898 397.838C33.3899 397.838 28.5606 396.887 24.0814 394.999L22.528 398.685C27.5279 400.792 32.8887 401.838 38.5898 401.838L38.5898 397.838ZM24.0767 394.997C19.5257 393.093 15.7475 390.564 12.7053 387.426L9.83372 390.211C13.2915 393.777 17.5368 396.597 22.5327 398.687L24.0767 394.997ZM12.7051 387.426C9.60793 384.233 7.17279 380.475 5.40296 376.131L1.69859 377.64C3.65272 382.436 6.36341 386.633 9.83394 390.211L12.7051 387.426ZM5.40296 376.131C3.64078 371.805 2.7578 367.255 2.7578 362.463L-1.2422 362.463C-1.2422 367.76 -0.263192 372.824 1.69859 377.64L5.40296 376.131ZM2.7578 362.463C2.7578 357.672 3.64077 353.14 5.40098 348.852L1.70056 347.333C-0.263181 352.117 -1.2422 357.166 -1.2422 362.463L2.7578 362.463ZM5.40296 348.847C7.17279 344.503 9.60793 340.744 12.7051 337.551L9.83394 334.766C6.36341 338.344 3.65272 342.541 1.69859 347.338L5.40296 348.847ZM12.7123 337.544C15.7513 334.378 19.5233 331.853 24.0655 329.985L22.5438 326.286C17.5391 328.344 13.2878 331.168 9.82675 334.774L12.7123 337.544ZM24.0814 329.978C28.5606 328.09 33.3899 327.139 38.5898 327.139L38.5898 323.139C32.8887 323.139 27.5279 324.185 22.528 326.292L24.0814 329.978ZM38.5898 327.139C43.7897 327.139 48.6378 328.09 53.1538 329.98L54.6978 326.29C49.6669 324.185 44.2911 323.139 38.5898 323.139L38.5898 327.139ZM53.1603 329.983C57.6701 331.851 61.4476 334.378 64.5253 337.551L67.3965 334.766C63.9065 331.168 59.6606 328.346 54.6913 326.287L53.1603 329.983ZM64.5182 337.544C67.5868 340.74 70.0265 344.505 71.8323 348.858L75.527 347.326C73.5412 342.539 70.8351 338.348 67.4037 334.774L64.5182 337.544ZM56.8804 379.602C61.6902 375.014 64.1016 369.255 64.1016 362.463L60.1016 362.463C60.1016 368.198 58.1119 372.899 54.1196 376.707L56.8804 379.602ZM64.1016 362.463C64.1016 355.672 61.6898 349.926 56.8745 345.37L54.1254 348.275C58.1123 352.048 60.1016 356.729 60.1016 362.463L64.1016 362.463ZM56.8804 345.375C52.0582 340.776 45.904 338.526 38.5898 338.526L38.5898 342.526C45.0204 342.526 50.1397 344.474 54.1196 348.27L56.8804 345.375ZM38.5898 338.526C31.2756 338.526 25.1215 340.776 20.2993 345.375L23.0601 348.27C27.0399 344.474 32.1592 342.526 38.5898 342.526L38.5898 338.526ZM20.3051 345.37C15.4899 349.926 13.0781 355.672 13.0781 362.463L17.0781 362.463C17.0781 356.729 19.0674 352.048 23.0542 348.275L20.3051 345.37ZM13.0781 362.463C13.0781 369.255 15.4895 375.014 20.2993 379.602L23.0601 376.707C19.0678 372.899 17.0781 368.198 17.0781 362.463L13.0781 362.463ZM20.3051 379.607C25.1281 384.171 31.2803 386.401 38.5898 386.401L38.5898 382.401C32.1546 382.401 27.0333 380.467 23.0542 376.702L20.3051 379.607ZM38.5898 386.401C45.8994 386.401 52.0515 384.171 56.8746 379.607L54.1254 376.702C50.1464 380.467 45.0251 382.401 38.5898 382.401L38.5898 386.401ZM73.1719 264.618L71.4005 265.547L71.4036 265.552L73.1719 264.618ZM73.1719 293.309L74.9402 294.244L74.9432 294.238L73.1719 293.309ZM63.2187 303.262L64.1764 305.018L64.1844 305.014L64.1923 305.01L63.2187 303.262ZM2.17968 306.919L0.179677 306.919L0.179677 308.919L2.17968 308.919L2.17968 306.919ZM2.17968 291.532L2.17968 289.532L0.179676 289.532L0.179676 291.532L2.17968 291.532ZM58.5976 288.079L59.9509 289.552L59.9613 289.542L59.9715 289.532L58.5976 288.079ZM58.5976 269.848L57.2337 271.311L57.2344 271.312L58.5976 269.848ZM2.17968 266.345L0.179675 266.345L0.179675 268.345L2.17968 268.345L2.17968 266.345ZM2.17967 250.958L2.17967 248.958L0.179674 248.958L0.179674 250.958L2.17967 250.958ZM63.2187 254.665L62.2508 256.415L62.2554 256.418L63.2187 254.665ZM71.4036 265.552C73.4314 269.39 74.4726 273.834 74.4726 278.938L78.4726 278.938C78.4726 273.277 77.3134 268.174 74.9401 263.683L71.4036 265.552ZM74.4726 278.938C74.4726 284.042 73.4315 288.506 71.4005 292.381L74.9432 294.238C77.3132 289.717 78.4726 284.6 78.4726 278.938L74.4726 278.938ZM71.4036 292.375C69.398 296.17 66.3697 299.217 62.2452 301.515L64.1923 305.01C68.9376 302.365 72.5447 298.777 74.9401 294.244L71.4036 292.375ZM62.261 301.507C58.1404 303.754 53.185 304.919 47.3242 304.919L47.3242 308.919C53.7186 308.919 59.3596 307.646 64.1764 305.018L62.261 301.507ZM47.3242 304.919L2.17968 304.919L2.17968 308.919L47.3242 308.919L47.3242 304.919ZM4.17968 306.919L4.17968 291.532L0.179676 291.532L0.179677 306.919L4.17968 306.919ZM2.17968 293.532L48.6953 293.532L48.6953 289.532L2.17968 289.532L2.17968 293.532ZM48.6953 293.532C53.1849 293.532 57.0042 292.259 59.9509 289.552L57.2444 286.606C55.1807 288.503 52.3984 289.532 48.6953 289.532L48.6953 293.532ZM59.9715 289.532C62.8867 286.777 64.3047 283.182 64.3047 278.938L60.3047 278.938C60.3047 282.21 59.2513 284.709 57.2238 286.625L59.9715 289.532ZM64.3047 278.938C64.3047 274.695 62.8864 271.11 59.9608 268.385L57.2344 271.312C59.2516 273.191 60.3047 275.666 60.3047 278.938L64.3047 278.938ZM59.9616 268.386C57.0158 265.639 53.1928 264.345 48.6953 264.345L48.6953 268.345C52.3905 268.345 55.1691 269.386 57.2337 271.311L59.9616 268.386ZM48.6953 264.345L2.17967 264.345L2.17968 268.345L48.6953 268.345L48.6953 264.345ZM4.17968 266.345L4.17967 250.958L0.179674 250.958L0.179675 266.345L4.17968 266.345ZM2.17967 252.958L47.3242 252.958L47.3242 248.958L2.17967 248.958L2.17967 252.958ZM47.3242 252.958C53.1808 252.958 58.1323 254.137 62.2508 256.415L64.1866 252.915C59.3677 250.25 53.7229 248.958 47.3242 248.958L47.3242 252.958ZM62.2554 256.418C66.3703 258.679 69.395 261.721 71.4005 265.547L74.9432 263.689C72.5477 259.119 68.937 255.526 64.1821 252.912L62.2554 256.418ZM2.17967 177.132L2.17967 175.132L0.179671 175.132L0.179671 177.132L2.17967 177.132ZM16.3476 177.132L18.3476 177.132L18.3476 175.132L16.3476 175.132L16.3476 177.132ZM16.3476 196.987L14.3476 196.987L14.3476 198.987L16.3476 198.987L16.3476 196.987ZM75 196.987L77 196.987L77 194.987L75 194.987L75 196.987ZM75 212.374L75 214.374L77 214.374L77 212.374L75 212.374ZM16.3476 212.374L16.3476 210.374L14.3476 210.374L14.3476 212.374L16.3476 212.374ZM16.3476 232.23L16.3476 234.23L18.3476 234.23L18.3476 232.23L16.3476 232.23ZM2.17967 232.23L0.179674 232.23L0.179674 234.23L2.17967 234.23L2.17967 232.23ZM2.17967 179.132L16.3476 179.132L16.3476 175.132L2.17967 175.132L2.17967 179.132ZM14.3476 177.132L14.3476 196.987L18.3476 196.987L18.3476 177.132L14.3476 177.132ZM16.3476 198.987L75 198.987L75 194.987L16.3476 194.987L16.3476 198.987ZM73 196.987L73 212.374L77 212.374L77 196.987L73 196.987ZM75 210.374L16.3476 210.374L16.3476 214.374L75 214.374L75 210.374ZM14.3476 212.374L14.3476 232.23L18.3476 232.23L18.3476 212.374L14.3476 212.374ZM16.3476 230.23L2.17967 230.23L2.17967 234.23L16.3476 234.23L16.3476 230.23ZM4.17967 232.23L4.17967 177.132L0.179671 177.132L0.179674 232.23L4.17967 232.23ZM73.1719 83.918L71.4005 84.8465L71.4036 84.8524L73.1719 83.918ZM73.1719 112.609L74.9401 113.544L74.9432 113.538L73.1719 112.609ZM63.2187 122.562L64.1764 124.318L64.1844 124.314L64.1923 124.31L63.2187 122.562ZM2.17967 126.219L0.179669 126.219L0.179669 128.219L2.17967 128.219L2.17967 126.219ZM2.17967 110.832L2.17967 108.832L0.179668 108.832L0.179668 110.832L2.17967 110.832ZM58.5976 107.379L59.9509 108.852L59.9612 108.842L59.9715 108.832L58.5976 107.379ZM58.5976 89.1484L57.2337 90.6112L57.2344 90.6119L58.5976 89.1484ZM2.17967 85.6445L0.179667 85.6445L0.179667 87.6445L2.17967 87.6445L2.17967 85.6445ZM2.17967 70.2578L2.17967 68.2578L0.179666 68.2578L0.179666 70.2578L2.17967 70.2578ZM63.2187 73.9648L62.2508 75.715L62.2554 75.7176L63.2187 73.9648ZM71.4036 84.8524C73.4314 88.6897 74.4726 93.1342 74.4726 98.2383L78.4726 98.2383C78.4726 92.5767 77.3133 87.4744 74.9401 82.9835L71.4036 84.8524ZM74.4726 98.2383C74.4726 103.342 73.4315 107.806 71.4005 111.681L74.9432 113.538C77.3132 109.017 78.4726 103.9 78.4726 98.2383L74.4726 98.2383ZM71.4036 111.675C69.398 115.47 66.3697 118.517 62.2452 120.815L64.1923 124.31C68.9376 121.665 72.5447 118.077 74.9401 113.544L71.4036 111.675ZM62.261 120.807C58.1404 123.054 53.185 124.219 47.3242 124.219L47.3242 128.219C53.7186 128.219 59.3596 126.946 64.1764 124.318L62.261 120.807ZM47.3242 124.219L2.17967 124.219L2.17967 128.219L47.3242 128.219L47.3242 124.219ZM4.17967 126.219L4.17967 110.832L0.179668 110.832L0.179669 126.219L4.17967 126.219ZM2.17967 112.832L48.6953 112.832L48.6953 108.832L2.17967 108.832L2.17967 112.832ZM48.6953 112.832C53.1849 112.832 57.0042 111.559 59.9509 108.852L57.2444 105.906C55.1807 107.803 52.3983 108.832 48.6953 108.832L48.6953 112.832ZM59.9715 108.832C62.8867 106.077 64.3047 102.482 64.3047 98.2383L60.3047 98.2383C60.3047 101.51 59.2512 104.009 57.2238 105.925L59.9715 108.832ZM64.3047 98.2383C64.3047 93.9947 62.8864 90.4101 59.9608 87.685L57.2344 90.6119C59.2516 92.4909 60.3047 94.9663 60.3047 98.2383L64.3047 98.2383ZM59.9616 87.6857C57.0158 84.9389 53.1928 83.6445 48.6953 83.6445L48.6953 87.6445C52.3905 87.6445 55.1691 88.6861 57.2337 90.6112L59.9616 87.6857ZM48.6953 83.6445L2.17967 83.6445L2.17967 87.6445L48.6953 87.6445L48.6953 83.6445ZM4.17967 85.6445L4.17967 70.2578L0.179666 70.2578L0.179667 85.6445L4.17967 85.6445ZM2.17967 72.2578L47.3242 72.2578L47.3242 68.2578L2.17967 68.2578L2.17967 72.2578ZM47.3242 72.2578C53.1807 72.2578 58.1323 73.4374 62.2508 75.715L64.1866 72.2147C59.3676 69.5496 53.7229 68.2578 47.3242 68.2578L47.3242 72.2578ZM62.2554 75.7176C66.3703 77.9792 69.395 81.0207 71.4005 84.8465L74.9432 82.9894C72.5477 78.4194 68.937 74.8255 64.1821 72.2121L62.2554 75.7176ZM52.0976 52.6977L50.0976 52.6977L50.0976 54.6977L52.0976 54.6977L52.0976 52.6977ZM52.0976 37.2093L52.0976 35.2093L50.0976 35.2093L50.0976 37.2093L52.0976 37.2093ZM59.4101 34.2133L60.8855 35.5636L60.8918 35.5568L60.898 35.5498L59.4101 34.2133ZM59.9687 18.9789L61.5362 17.7368L61.5291 17.7277L61.5219 17.7188L59.9687 18.9789ZM51.082 16.9476L51.9764 18.7365L51.9906 18.7294L52.0047 18.7221L51.082 16.9476ZM48.8476 18.6234L50.2976 20.0009L50.3162 19.9814L50.3342 19.9614L48.8476 18.6234ZM47.0195 21.264L48.7627 22.2446L48.7745 22.2236L48.7857 22.2024L47.0195 21.264ZM45.4961 24.4125L47.3441 25.1772L47.3486 25.1663L47.353 25.1553L45.4961 24.4125ZM44.2265 27.9164L46.1194 28.5622L46.1241 28.5485L46.1286 28.5346L44.2265 27.9164ZM41.2812 36.5492L39.3884 35.9034L39.3867 35.9084L41.2812 36.5492ZM34.0195 47.6195L35.3015 49.1547L35.3107 49.1469L34.0195 47.6195ZM6.59763 44.725L5.05665 45.9999L5.06119 46.0054L6.59763 44.725ZM6.9531 8.92419L8.41671 10.2873L8.42228 10.2812L6.9531 8.92419ZM23.2031 2.27185L25.2031 2.27185L25.2031 0.271849L23.2031 0.271849L23.2031 2.27185ZM23.2031 17.4554L23.2031 19.4554L25.2031 19.4554L25.2031 17.4554L23.2031 17.4554ZM17.2109 20.2484L18.7334 21.5453L18.7393 21.5385L18.7451 21.5316L17.2109 20.2484ZM16.7031 34.0101L18.3416 32.8632L18.3339 32.8524L18.3262 32.8416L16.7031 34.0101ZM25.5898 34.2133L27.1815 35.4243L27.1877 35.4161L27.1939 35.4078L25.5898 34.2133ZM29.2461 26.2914L27.3546 25.6415L27.3522 25.6486L29.2461 26.2914ZM32.6484 16.389L30.7594 15.732L30.7569 15.7392L32.6484 16.389ZM40.164 5.16638L41.4414 6.70538L41.4504 6.69781L40.164 5.16638ZM74.4726 26.3929C74.4726 34.3738 72.3864 40.287 68.4708 44.415L71.3729 47.1678C76.1917 42.0876 78.4726 35.0684 78.4726 26.3929L74.4726 26.3929ZM68.4708 44.415C64.5506 48.5479 59.1741 50.6977 52.0976 50.6977L52.0976 54.6977C60.0524 54.6977 66.5587 52.2432 71.3729 47.1678L68.4708 44.415ZM54.0976 52.6977L54.0976 37.2093L50.0976 37.2093L50.0976 52.6977L54.0976 52.6977ZM52.0976 39.2094C55.6278 39.2094 58.629 38.029 60.8855 35.5636L57.9348 32.863C56.5351 34.3923 54.6612 35.2093 52.0976 35.2093L52.0976 39.2094ZM60.898 35.5498C63.0848 33.1154 64.1015 29.9997 64.1015 26.3929L60.1015 26.3929C60.1015 29.2186 59.324 31.3163 57.9223 32.8768L60.898 35.5498ZM64.1015 26.3929C64.1015 22.9609 63.3269 19.9964 61.5362 17.7368L58.4012 20.2211C59.4543 21.5499 60.1015 23.5282 60.1015 26.3929L64.1015 26.3929ZM61.5219 17.7188C59.6346 15.3926 56.9972 14.2875 53.875 14.2875L53.875 18.2875C55.9663 18.2875 57.3914 18.9766 58.4156 20.239L61.5219 17.7188ZM53.875 14.2875C52.5595 14.2875 51.309 14.5754 50.1593 15.1732L52.0047 18.7221C52.5477 18.4398 53.1592 18.2875 53.875 18.2875L53.875 14.2875ZM50.1876 15.1588C49.1016 15.7018 48.1509 16.4079 47.361 17.2855L50.3342 19.9614C50.7631 19.4848 51.302 19.0737 51.9764 18.7365L50.1876 15.1588ZM47.3976 17.246C46.5976 18.0881 45.8889 19.1293 45.2533 20.3257L48.7857 22.2024C49.3012 21.2321 49.8112 20.513 50.2976 20.0009L47.3976 17.246ZM45.2764 20.2836C44.6296 21.4334 44.0821 22.5623 43.6391 23.6697L47.353 25.1553C47.7226 24.2314 48.1907 23.2614 48.7627 22.2446L45.2764 20.2836ZM43.648 23.6478C43.2165 24.6907 42.7756 25.91 42.3245 27.2982L46.1286 28.5346C46.5576 27.2145 46.9631 26.0979 47.3441 25.1772L43.648 23.6478ZM42.3337 27.2706L39.3884 35.9034L43.1741 37.195L46.1194 28.5622L42.3337 27.2706ZM39.3867 35.9084C37.9305 40.2137 35.6992 43.5807 32.7283 46.0922L35.3107 49.1469C38.9075 46.1063 41.5174 42.0931 43.1758 37.19L39.3867 35.9084ZM32.7376 46.0844C29.8756 48.4743 26.191 49.7328 21.5273 49.7328L21.5273 53.7328C26.9522 53.7328 31.5957 52.2491 35.3014 49.1547L32.7376 46.0844ZM21.5273 49.7328C16.0634 49.7328 11.6489 47.6624 8.13408 43.4446L5.06119 46.0054C9.33284 51.1313 14.8714 53.7328 21.5273 53.7328L21.5273 49.7328ZM8.13861 43.4501C4.57161 39.1387 2.75779 33.8979 2.75779 27.6117L-1.24221 27.6117C-1.24221 34.7317 0.837196 40.8999 5.05666 45.9999L8.13861 43.4501ZM2.75779 27.6117C2.75779 19.9262 4.73075 14.2451 8.4167 10.2873L5.4895 7.56116C0.915037 12.4731 -1.24221 19.2504 -1.24221 27.6117L2.75779 27.6117ZM8.42228 10.2812C12.094 6.30609 16.9524 4.27185 23.2031 4.27185L23.2031 0.271849C15.9798 0.271849 10.0049 2.67261 5.48392 7.5672L8.42228 10.2812ZM21.2031 2.27185L21.2031 17.4554L25.2031 17.4554L25.2031 2.27185L21.2031 2.27185ZM23.2031 15.4554C20.1762 15.4554 17.6159 16.6468 15.6768 18.9653L18.7451 21.5316C19.9205 20.1261 21.355 19.4554 23.2031 19.4554L23.2031 15.4554ZM15.6884 18.9515C13.7441 21.2339 12.875 24.1932 12.875 27.6117L16.875 27.6117C16.875 24.8688 17.5631 22.9192 18.7334 21.5453L15.6884 18.9515ZM12.875 27.6117C12.875 30.5047 13.5639 33.0731 15.08 35.1788L18.3262 32.8416C17.4048 31.5618 16.875 29.8646 16.875 27.6117L12.875 27.6117ZM15.0646 35.1571C16.5493 37.278 18.588 38.5492 21.1211 38.5492L21.1211 34.5492C20.1333 34.5492 19.2267 34.1277 18.3416 32.8632L15.0646 35.1571ZM21.1211 38.5492C23.6025 38.5492 25.6579 37.4268 27.1815 35.4243L23.9982 33.0023C23.152 34.1144 22.2282 34.5492 21.1211 34.5492L21.1211 38.5492ZM27.1939 35.4078C28.5728 33.5562 29.8718 30.67 31.1399 26.9343L27.3522 25.6486C26.1151 29.293 24.9766 31.6881 23.9857 33.0187L27.1939 35.4078ZM31.1375 26.9413L34.5399 17.0389L30.7569 15.7392L27.3546 25.6415L31.1375 26.9413ZM34.5374 17.0461C36.0579 12.6746 38.3701 9.25458 41.4414 6.70538L38.8867 3.62744C35.1872 6.69806 32.4889 10.7598 30.7594 15.7321L34.5374 17.0461ZM41.4504 6.69781C44.4485 4.17944 48.046 2.90075 52.3515 2.90075L52.3515 -1.09925C47.1779 -1.09925 42.6504 0.465879 38.8777 3.63501L41.4504 6.69781ZM52.3515 2.90075C58.8644 2.90075 64.104 5.0495 68.2331 9.30188L71.1028 6.51532C66.159 1.42395 59.8543 -1.09925 52.3515 -1.09925L52.3515 2.90075ZM68.2331 9.30188C72.3444 13.5359 74.4726 19.1646 74.4726 26.3929L78.4726 26.3929C78.4726 18.3193 76.0644 11.6251 71.1028 6.51532L68.2331 9.30188Z" fill="#5B5B5B"/>
</svg>
