<svg width="397" height="387" viewBox="0 0 397 387" fill="none" xmlns="http://www.w3.org/2000/svg">
<path d="M184.9 82.93L359.909 0L397.001 27.1918L376.198 139.152L324.632 129.766L336.408 67.3504L207.666 128.846L184.9 82.93Z" fill="#D2D2D2"/>
<path d="M90.7759 210.894L6.68164 38.3087L34.2552 1.73047L147.738 22.2453L138.269 73.0968L74.9285 61.4846L137.288 188.492L90.7759 210.894Z" fill="#077151"/>
<path d="M212.1 304.021L37.0918 387L0 359.76L20.8028 247.848L72.3682 257.186L60.593 319.649L189.335 258.153L212.1 304.021Z" fill="#D2D2D2"/>
<path d="M306.253 175.998L390.348 348.632L362.774 385.162L249.291 364.647L258.76 313.844L322.101 325.408L259.741 198.448L306.253 175.998Z" fill="#D2D2D2"/>
</svg>
