<svg width="77" height="721" viewBox="0 0 77 721" fill="none" xmlns="http://www.w3.org/2000/svg">
<path d="M73.6797 669.082L75.5299 668.323L75.5271 668.316L73.6797 669.082ZM73.6797 697.875L75.5271 698.641L75.5319 698.63L73.6797 697.875ZM65.9609 709.809L67.3895 711.208L67.3966 711.201L67.4037 711.194L65.9609 709.809ZM53.9258 717.832L54.6978 719.677L54.7025 719.675L53.9258 717.832ZM23.3047 717.832L24.0814 715.989L24.0767 715.987L23.3047 717.832ZM11.2695 709.809L12.7053 708.416L12.7051 708.416L11.2695 709.809ZM3.55078 669.082L5.401 669.841L5.40296 669.837L3.55078 669.082ZM11.2695 657.148L12.7051 658.541L12.7123 658.533L11.2695 657.148ZM23.3047 649.125L24.0655 650.975L24.0735 650.971L24.0814 650.968L23.3047 649.125ZM53.9258 649.125L53.1538 650.97L53.1603 650.973L53.9258 649.125ZM65.9609 657.148L67.4037 655.763L67.3965 655.756L65.9609 657.148ZM55.5 699.145L56.8746 700.597L56.8804 700.592L55.5 699.145ZM55.5 667.812L54.1196 669.26L54.1254 669.265L55.5 667.812ZM21.6797 667.812L23.0543 669.265L23.0601 669.26L21.6797 667.812ZM21.6797 699.145L20.2993 700.592L20.3051 700.597L21.6797 699.145ZM71.8295 669.841C73.5897 674.13 74.4727 678.662 74.4727 683.453L78.4727 683.453C78.4727 678.156 77.4936 673.107 75.5299 668.323L71.8295 669.841ZM74.4727 683.453C74.4727 688.245 73.5897 692.795 71.8275 697.12L75.5319 698.63C77.4937 693.814 78.4727 688.75 78.4727 683.453L74.4727 683.453ZM71.8323 697.109C70.0265 701.462 67.5868 705.227 64.5182 708.424L67.4037 711.194C70.8351 707.619 73.5412 703.429 75.5271 698.641L71.8323 697.109ZM64.5324 708.409C61.4514 711.553 57.6677 714.085 53.1491 715.989L54.7025 719.675C59.663 717.585 63.9028 714.767 67.3895 711.208L64.5324 708.409ZM53.1538 715.987C48.6378 717.877 43.7897 718.828 38.5898 718.828L38.5898 722.828C44.2911 722.828 49.6669 721.782 54.6978 719.677L53.1538 715.987ZM38.5898 718.828C33.3899 718.828 28.5606 717.877 24.0814 715.989L22.528 719.675C27.5279 721.782 32.8887 722.828 38.5898 722.828L38.5898 718.828ZM24.0767 715.987C19.5257 714.083 15.7475 711.554 12.7053 708.416L9.83373 711.201C13.2915 714.767 17.5368 717.587 22.5327 719.677L24.0767 715.987ZM12.7051 708.416C9.60794 705.223 7.17279 701.465 5.40296 697.12L1.6986 698.63C3.65273 703.426 6.36341 707.623 9.83395 711.201L12.7051 708.416ZM5.40296 697.12C3.64079 692.795 2.75781 688.245 2.75781 683.453L-1.24219 683.453C-1.24219 688.75 -0.263186 693.814 1.6986 698.63L5.40296 697.12ZM2.75781 683.453C2.75781 678.662 3.64077 674.13 5.40099 669.841L1.70057 668.323C-0.263174 673.107 -1.24219 678.156 -1.24219 683.453L2.75781 683.453ZM5.40296 669.837C7.17279 665.493 9.60794 661.734 12.7051 658.541L9.83395 655.756C6.36341 659.334 3.65272 663.531 1.69859 668.327L5.40296 669.837ZM12.7123 658.533C15.7513 655.368 19.5234 652.843 24.0655 650.975L22.5438 647.275C17.5391 649.334 13.2878 652.158 9.82675 655.763L12.7123 658.533ZM24.0814 650.968C28.5606 649.08 33.3899 648.129 38.5898 648.129L38.5898 644.129C32.8887 644.129 27.5279 645.175 22.528 647.282L24.0814 650.968ZM38.5898 648.129C43.7897 648.129 48.6378 649.08 53.1538 650.97L54.6978 647.28C49.6669 645.175 44.2911 644.129 38.5898 644.129L38.5898 648.129ZM53.1603 650.973C57.6701 652.841 61.4476 655.368 64.5253 658.541L67.3965 655.756C63.9066 652.158 59.6606 649.336 54.6913 647.277L53.1603 650.973ZM64.5182 658.533C67.5868 661.73 70.0265 665.495 71.8323 669.848L75.5271 668.316C73.5412 663.528 70.8351 659.338 67.4037 655.763L64.5182 658.533ZM56.8804 700.592C61.6902 696.004 64.1016 690.245 64.1016 683.453L60.1016 683.453C60.1016 689.188 58.1119 693.889 54.1196 697.697L56.8804 700.592ZM64.1016 683.453C64.1016 676.661 61.6898 670.916 56.8746 666.36L54.1254 669.265C58.1123 673.037 60.1016 677.719 60.1016 683.453L64.1016 683.453ZM56.8804 666.365C52.0582 661.766 45.904 659.516 38.5898 659.516L38.5898 663.516C45.0204 663.516 50.1397 665.464 54.1196 669.26L56.8804 666.365ZM38.5898 659.516C31.2757 659.516 25.1215 661.766 20.2993 666.365L23.0601 669.26C27.0399 665.464 32.1592 663.516 38.5898 663.516L38.5898 659.516ZM20.3051 666.36C15.4899 670.916 13.0781 676.661 13.0781 683.453L17.0781 683.453C17.0781 677.719 19.0674 673.037 23.0542 669.265L20.3051 666.36ZM13.0781 683.453C13.0781 690.245 15.4895 696.004 20.2993 700.592L23.0601 697.697C19.0678 693.889 17.0781 689.188 17.0781 683.453L13.0781 683.453ZM20.3051 700.597C25.1281 705.161 31.2803 707.391 38.5898 707.391L38.5898 703.391C32.1546 703.391 27.0333 701.457 23.0542 697.692L20.3051 700.597ZM38.5898 707.391C45.8994 707.391 52.0516 705.161 56.8746 700.597L54.1254 697.692C50.1464 701.457 45.0251 703.391 38.5898 703.391L38.5898 707.391ZM73.1719 585.608L71.4005 586.536L71.4036 586.542L73.1719 585.608ZM73.1719 614.299L74.9402 615.234L74.9433 615.228L73.1719 614.299ZM63.2187 624.252L64.1764 626.008L64.1844 626.004L64.1923 625.999L63.2187 624.252ZM2.17968 627.909L0.179683 627.909L0.179683 629.909L2.17968 629.909L2.17968 627.909ZM2.17968 612.522L2.17968 610.522L0.179683 610.522L0.179683 612.522L2.17968 612.522ZM58.5977 609.069L59.9509 610.541L59.9613 610.532L59.9715 610.522L58.5977 609.069ZM58.5977 590.838L57.2337 592.301L57.2344 592.302L58.5977 590.838ZM2.17968 587.334L0.179682 587.334L0.179682 589.334L2.17968 589.334L2.17968 587.334ZM2.17968 571.948L2.17968 569.948L0.179681 569.948L0.179681 571.948L2.17968 571.948ZM63.2187 575.655L62.2508 577.405L62.2554 577.407L63.2187 575.655ZM71.4036 586.542C73.4314 590.38 74.4727 594.824 74.4727 599.928L78.4727 599.928C78.4727 594.267 77.3134 589.164 74.9401 584.673L71.4036 586.542ZM74.4727 599.928C74.4727 605.032 73.4315 609.496 71.4005 613.371L74.9433 615.228C77.3133 610.707 78.4727 605.59 78.4727 599.928L74.4727 599.928ZM71.4036 613.365C69.398 617.16 66.3697 620.207 62.2452 622.505L64.1923 625.999C68.9376 623.355 72.5447 619.767 74.9401 615.234L71.4036 613.365ZM62.261 622.497C58.1404 624.744 53.1851 625.909 47.3242 625.909L47.3242 629.909C53.7186 629.909 59.3596 628.636 64.1764 626.008L62.261 622.497ZM47.3242 625.909L2.17968 625.909L2.17968 629.909L47.3242 629.909L47.3242 625.909ZM4.17968 627.909L4.17968 612.522L0.179683 612.522L0.179683 627.909L4.17968 627.909ZM2.17968 614.522L48.6953 614.522L48.6953 610.522L2.17968 610.522L2.17968 614.522ZM48.6953 614.522C53.185 614.522 57.0042 613.249 59.9509 610.541L57.2444 607.596C55.1807 609.492 52.3984 610.522 48.6953 610.522L48.6953 614.522ZM59.9715 610.522C62.8867 607.767 64.3047 604.172 64.3047 599.928L60.3047 599.928C60.3047 603.2 59.2513 605.699 57.2238 607.615L59.9715 610.522ZM64.3047 599.928C64.3047 595.685 62.8864 592.1 59.9609 589.375L57.2344 592.302C59.2516 594.181 60.3047 596.656 60.3047 599.928L64.3047 599.928ZM59.9616 589.376C57.0158 586.629 53.1928 585.334 48.6953 585.334L48.6953 589.334C52.3906 589.334 55.1691 590.376 57.2337 592.301L59.9616 589.376ZM48.6953 585.334L2.17968 585.334L2.17968 589.334L48.6953 589.334L48.6953 585.334ZM4.17968 587.334L4.17968 571.948L0.179681 571.948L0.179682 587.334L4.17968 587.334ZM2.17968 573.948L47.3242 573.948L47.3242 569.948L2.17968 569.948L2.17968 573.948ZM47.3242 573.948C53.1808 573.948 58.1323 575.127 62.2508 577.405L64.1866 573.904C59.3677 571.239 53.7229 569.948 47.3242 569.948L47.3242 573.948ZM62.2554 577.407C66.3703 579.669 69.395 582.711 71.4005 586.536L74.9433 584.679C72.5477 580.109 68.937 576.515 64.1821 573.902L62.2554 577.407ZM47.5273 511.223L45.7417 512.124L46.6332 513.892L48.4098 513.018L47.5273 511.223ZM75 497.716L77 497.716L77 494.504L74.1175 495.921L75 497.716ZM75 514.22L75.8899 516.011L77 515.459L77 514.22L75 514.22ZM50.6758 526.305L49.7858 524.514L48.6758 525.066L48.6758 526.305L50.6758 526.305ZM50.6758 536.817L48.6758 536.817L48.6758 538.817L50.6758 538.817L50.6758 536.817ZM75 536.817L77 536.817L77 534.817L75 534.817L75 536.817ZM75 552.204L75 554.204L77 554.204L77 552.204L75 552.204ZM2.17968 552.204L0.17968 552.204L0.17968 554.204L2.17968 554.204L2.17968 552.204ZM8.52733 506.501L10.0377 507.812L10.0425 507.806L10.0473 507.801L8.52733 506.501ZM39.3516 502.337L38.3226 504.052L38.3274 504.055L39.3516 502.337ZM15.7383 536.817L13.7383 536.817L13.7383 538.817L15.7383 538.817L15.7383 536.817ZM37.168 536.817L37.168 538.817L39.168 538.817L39.168 536.817L37.168 536.817ZM34.4258 517.774L35.9443 516.473L35.9426 516.471L34.4258 517.774ZM18.5312 517.774L20.0379 519.09L20.049 519.077L20.0598 519.064L18.5312 517.774ZM48.4098 513.018L75.8825 499.51L74.1175 495.921L46.6449 509.429L48.4098 513.018ZM73 497.716L73 514.22L77 514.22L77 497.716L73 497.716ZM74.1101 512.428L49.7858 524.514L51.5657 528.097L75.8899 516.011L74.1101 512.428ZM48.6758 526.305L48.6758 536.817L52.6758 536.817L52.6758 526.305L48.6758 526.305ZM50.6758 538.817L75 538.817L75 534.817L50.6758 534.817L50.6758 538.817ZM73 536.817L73 552.204L77 552.204L77 536.817L73 536.817ZM75 550.204L2.17968 550.204L2.17968 554.204L75 554.204L75 550.204ZM4.17968 552.204L4.17968 526.001L0.179679 526.001L0.17968 552.204L4.17968 552.204ZM4.17968 526.001C4.17968 518.229 6.19686 512.236 10.0377 507.812L7.01699 505.19C2.39427 510.515 0.179678 517.523 0.179679 526.001L4.17968 526.001ZM10.0473 507.801C13.789 503.425 19.1566 501.137 26.4531 501.137L26.4531 497.137C18.2444 497.137 11.6615 499.759 7.00734 505.201L10.0473 507.801ZM26.4531 501.137C31.2135 501.137 35.1398 502.142 38.3226 504.052L40.3805 500.622C36.4539 498.266 31.7813 497.137 26.4531 497.137L26.4531 501.137ZM38.3274 504.055C41.5068 505.95 43.9749 508.622 45.7417 512.124L49.313 510.323C47.2204 506.174 44.238 502.921 40.3757 500.619L38.3274 504.055ZM13.7383 526.61L13.7383 536.817L17.7383 536.817L17.7383 526.61L13.7383 526.61ZM15.7383 538.817L37.168 538.817L37.168 534.817L15.7383 534.817L15.7383 538.817ZM39.168 536.817L39.168 526.61L35.168 526.61L35.168 536.817L39.168 536.817ZM39.168 526.61C39.168 522.538 38.1747 519.075 35.9443 516.473L32.9073 519.076C34.3331 520.739 35.168 523.167 35.168 526.61L39.168 526.61ZM35.9426 516.471C33.6217 513.77 30.356 512.524 26.4531 512.524L26.4531 516.524C29.4565 516.524 31.5059 517.445 32.9089 519.078L35.9426 516.471ZM26.4531 512.524C22.5515 512.524 19.2931 513.77 17.0027 516.484L20.0598 519.064C21.4257 517.445 23.4485 516.524 26.4531 516.524L26.4531 512.524ZM17.0246 516.459C14.7528 519.061 13.7383 522.529 13.7383 526.61L17.7383 526.61C17.7383 523.175 18.5857 520.753 20.0379 519.09L17.0246 516.459ZM52.0976 451.525L50.0976 451.525L50.0976 453.525L52.0976 453.525L52.0976 451.525ZM52.0976 436.037L52.0976 434.037L50.0976 434.037L50.0976 436.037L52.0976 436.037ZM59.4101 433.041L60.8855 434.391L60.8918 434.384L60.898 434.377L59.4101 433.041ZM59.9687 417.806L61.5362 416.564L61.5291 416.555L61.5219 416.546L59.9687 417.806ZM51.082 415.775L51.9764 417.564L51.9906 417.557L52.0047 417.549L51.082 415.775ZM48.8476 417.451L50.2976 418.828L50.3162 418.809L50.3342 418.789L48.8476 417.451ZM47.0195 420.091L48.7627 421.072L48.7745 421.051L48.7857 421.03L47.0195 420.091ZM45.4961 423.24L47.3441 424.005L47.3486 423.994L47.353 423.983L45.4961 423.24ZM44.2265 426.744L46.1194 427.39L46.1241 427.376L46.1286 427.362L44.2265 426.744ZM41.2812 435.377L39.3884 434.731L39.3867 434.736L41.2812 435.377ZM34.0195 446.447L35.3015 447.982L35.3107 447.974L34.0195 446.447ZM6.59764 443.552L5.05666 444.827L5.0612 444.833L6.59764 443.552ZM6.95311 407.752L8.41672 409.115L8.42229 409.109L6.95311 407.752ZM23.2031 401.099L25.2031 401.099L25.2031 399.099L23.2031 399.099L23.2031 401.099ZM23.2031 416.283L23.2031 418.283L25.2031 418.283L25.2031 416.283L23.2031 416.283ZM17.2109 419.076L18.7334 420.373L18.7393 420.366L18.7451 420.359L17.2109 419.076ZM16.7031 432.837L18.3416 431.691L18.3339 431.68L18.3262 431.669L16.7031 432.837ZM25.5898 433.041L27.1815 434.252L27.1877 434.243L27.1939 434.235L25.5898 433.041ZM29.2461 425.119L27.3546 424.469L27.3522 424.476L29.2461 425.119ZM32.6484 415.216L30.7594 414.559L30.757 414.566L32.6484 415.216ZM40.164 403.994L41.4414 405.533L41.4504 405.525L40.164 403.994ZM74.4726 425.22C74.4726 433.201 72.3864 439.114 68.4708 443.242L71.3729 445.995C76.1917 440.915 78.4726 433.896 78.4726 425.22L74.4726 425.22ZM68.4708 443.242C64.5506 447.375 59.1741 449.525 52.0976 449.525L52.0976 453.525C60.0524 453.525 66.5587 451.071 71.3729 445.995L68.4708 443.242ZM54.0976 451.525L54.0976 436.037L50.0976 436.037L50.0976 451.525L54.0976 451.525ZM52.0976 438.037C55.6278 438.037 58.629 436.856 60.8855 434.391L57.9348 431.69C56.5351 433.22 54.6612 434.037 52.0976 434.037L52.0976 438.037ZM60.898 434.377C63.0848 431.943 64.1015 428.827 64.1015 425.22L60.1015 425.22C60.1015 428.046 59.324 430.144 57.9223 431.704L60.898 434.377ZM64.1015 425.22C64.1015 421.788 63.3269 418.824 61.5362 416.564L58.4012 419.048C59.4543 420.377 60.1015 422.355 60.1015 425.22L64.1015 425.22ZM61.5219 416.546C59.6346 414.22 56.9972 413.115 53.875 413.115L53.875 417.115C55.9663 417.115 57.3914 417.804 58.4156 419.066L61.5219 416.546ZM53.875 413.115C52.5595 413.115 51.309 413.403 50.1593 414.001L52.0047 417.549C52.5477 417.267 53.1592 417.115 53.875 417.115L53.875 413.115ZM50.1876 413.986C49.1016 414.529 48.1509 415.235 47.3611 416.113L50.3342 418.789C50.7632 418.312 51.302 417.901 51.9764 417.564L50.1876 413.986ZM47.3976 416.073C46.5976 416.915 45.8889 417.957 45.2533 419.153L48.7857 421.03C49.3012 420.059 49.8112 419.34 50.2976 418.828L47.3976 416.073ZM45.2764 419.111C44.6296 420.261 44.0821 421.39 43.6391 422.497L47.353 423.983C47.7226 423.059 48.1907 422.089 48.7627 421.072L45.2764 419.111ZM43.648 422.475C43.2165 423.518 42.7757 424.737 42.3245 426.126L46.1286 427.362C46.5576 426.042 46.9632 424.925 47.3441 424.005L43.648 422.475ZM42.3337 426.098L39.3884 434.731L43.1741 436.022L46.1194 427.39L42.3337 426.098ZM39.3867 434.736C37.9305 439.041 35.6992 442.408 32.7283 444.919L35.3107 447.974C38.9075 444.934 41.5174 440.92 43.1758 436.017L39.3867 434.736ZM32.7376 444.912C29.8756 447.302 26.191 448.56 21.5273 448.56L21.5273 452.56C26.9522 452.56 31.5957 451.076 35.3014 447.982L32.7376 444.912ZM21.5273 448.56C16.0634 448.56 11.6489 446.49 8.13409 442.272L5.0612 444.833C9.33285 449.959 14.8714 452.56 21.5273 452.56L21.5273 448.56ZM8.13862 442.277C4.57162 437.966 2.7578 432.725 2.7578 426.439L-1.2422 426.439C-1.2422 433.559 0.837206 439.727 5.05667 444.827L8.13862 442.277ZM2.7578 426.439C2.7578 418.754 4.73076 413.072 8.41671 409.115L5.48951 406.389C0.915046 411.3 -1.2422 418.078 -1.2422 426.439L2.7578 426.439ZM8.42229 409.109C12.094 405.133 16.9524 403.099 23.2031 403.099L23.2031 399.099C15.9798 399.099 10.0049 401.5 5.48393 406.395L8.42229 409.109ZM21.2031 401.099L21.2031 416.283L25.2031 416.283L25.2031 401.099L21.2031 401.099ZM23.2031 414.283C20.1762 414.283 17.6159 415.474 15.6768 417.793L18.7451 420.359C19.9205 418.953 21.3551 418.283 23.2031 418.283L23.2031 414.283ZM15.6884 417.779C13.7441 420.061 12.875 423.021 12.875 426.439L16.875 426.439C16.875 423.696 17.5631 421.747 18.7334 420.373L15.6884 417.779ZM12.875 426.439C12.875 429.332 13.5639 431.9 15.08 434.006L18.3262 431.669C17.4048 430.389 16.875 428.692 16.875 426.439L12.875 426.439ZM15.0646 433.984C16.5493 436.105 18.588 437.377 21.1211 437.377L21.1211 433.377C20.1333 433.377 19.2267 432.955 18.3416 431.691L15.0646 433.984ZM21.1211 437.377C23.6025 437.377 25.6579 436.254 27.1815 434.252L23.9982 431.83C23.152 432.942 22.2282 433.377 21.1211 433.377L21.1211 437.377ZM27.1939 434.235C28.5728 432.383 29.8719 429.497 31.1399 425.762L27.3522 424.476C26.1151 428.12 24.9766 430.515 23.9857 431.846L27.1939 434.235ZM31.1375 425.769L34.5399 415.866L30.757 414.566L27.3546 424.469L31.1375 425.769ZM34.5374 415.873C36.0579 411.502 38.3701 408.082 41.4414 405.533L38.8867 402.455C35.1872 405.525 32.4889 409.587 30.7594 414.559L34.5374 415.873ZM41.4504 405.525C44.4485 403.007 48.046 401.728 52.3515 401.728L52.3515 397.728C47.1779 397.728 42.6504 399.293 38.8777 402.462L41.4504 405.525ZM52.3515 401.728C58.8644 401.728 64.104 403.877 68.2331 408.129L71.1028 405.343C66.159 400.251 59.8543 397.728 52.3515 397.728L52.3515 401.728ZM68.2331 408.129C72.3444 412.363 74.4726 417.992 74.4726 425.22L78.4726 425.22C78.4726 417.147 76.0644 410.452 71.1028 405.343L68.2331 408.129ZM75 336.211L77 336.211L77 334.211L75 334.211L75 336.211ZM75 381.965L75 383.965L77 383.965L77 381.965L75 381.965ZM2.17967 381.965L0.179673 381.965L0.179673 383.965L2.17967 383.965L2.17967 381.965ZM2.17967 337.43L2.17967 335.43L0.179671 335.43L0.179671 337.43L2.17967 337.43ZM16.3476 337.43L18.3476 337.43L18.3476 335.43L16.3476 335.43L16.3476 337.43ZM16.3476 366.578L14.3476 366.578L14.3476 368.578L16.3476 368.578L16.3476 366.578ZM29.8555 366.578L29.8555 368.578L31.8555 368.578L31.8555 366.578L29.8555 366.578ZM29.8555 342L29.8555 340L27.8555 340L27.8555 342L29.8555 342ZM44.0234 342L46.0234 342L46.0234 340L44.0234 340L44.0234 342ZM44.0234 366.578L42.0234 366.578L42.0234 368.578L44.0234 368.578L44.0234 366.578ZM60.832 366.578L60.832 368.578L62.832 368.578L62.832 366.578L60.832 366.578ZM60.832 336.211L60.832 334.211L58.832 334.211L58.832 336.211L60.832 336.211ZM73 336.211L73 381.965L77 381.965L77 336.211L73 336.211ZM75 379.965L2.17967 379.965L2.17967 383.965L75 383.965L75 379.965ZM4.17967 381.965L4.17967 337.43L0.179671 337.43L0.179673 381.965L4.17967 381.965ZM2.17967 339.43L16.3476 339.43L16.3476 335.43L2.17967 335.43L2.17967 339.43ZM14.3476 337.43L14.3476 366.578L18.3476 366.578L18.3476 337.43L14.3476 337.43ZM16.3476 368.578L29.8555 368.578L29.8555 364.578L16.3476 364.578L16.3476 368.578ZM31.8555 366.578L31.8555 342L27.8555 342L27.8555 366.578L31.8555 366.578ZM29.8555 344L44.0234 344L44.0234 340L29.8555 340L29.8555 344ZM42.0234 342L42.0234 366.578L46.0234 366.578L46.0234 342L42.0234 342ZM44.0234 368.578L60.832 368.578L60.832 364.578L44.0234 364.578L44.0234 368.578ZM62.832 366.578L62.832 336.211L58.832 336.211L58.832 366.578L62.832 366.578ZM60.832 338.211L75 338.211L75 334.211L60.832 334.211L60.832 338.211ZM47.5273 278.584L45.7416 279.485L46.6332 281.253L48.4098 280.379L47.5273 278.584ZM75 265.077L77 265.077L77 261.865L74.1175 263.282L75 265.077ZM75 281.58L75.8899 283.372L77 282.82L77 281.58L75 281.58ZM50.6758 293.666L49.7858 291.875L48.6758 292.427L48.6758 293.666L50.6758 293.666ZM50.6758 304.178L48.6758 304.178L48.6758 306.178L50.6758 306.178L50.6758 304.178ZM75 304.178L77 304.178L77 302.178L75 302.178L75 304.178ZM75 319.565L75 321.565L77 321.565L77 319.565L75 319.565ZM2.17967 319.565L0.17967 319.565L0.17967 321.565L2.17967 321.565L2.17967 319.565ZM8.52732 273.862L10.0377 275.173L10.0425 275.167L10.0473 275.162L8.52732 273.862ZM39.3515 269.698L38.3225 271.413L38.3274 271.416L39.3515 269.698ZM15.7383 304.178L13.7383 304.178L13.7383 306.178L15.7383 306.178L15.7383 304.178ZM37.168 304.178L37.168 306.178L39.168 306.178L39.168 304.178L37.168 304.178ZM34.4258 285.135L35.9443 283.834L35.9426 283.832L34.4258 285.135ZM18.5312 285.135L20.0379 286.45L20.0489 286.438L20.0598 286.425L18.5312 285.135ZM48.4098 280.379L75.8824 266.871L74.1175 263.282L46.6449 276.79L48.4098 280.379ZM73 265.077L73 281.58L77 281.58L77 265.077L73 265.077ZM74.11 279.789L49.7858 291.875L51.5657 295.458L75.8899 283.372L74.11 279.789ZM48.6758 293.666L48.6758 304.178L52.6758 304.178L52.6758 293.666L48.6758 293.666ZM50.6758 306.178L75 306.178L75 302.178L50.6758 302.178L50.6758 306.178ZM73 304.178L73 319.565L77 319.565L77 304.178L73 304.178ZM75 317.565L2.17967 317.565L2.17967 321.565L75 321.565L75 317.565ZM4.17967 319.565L4.17967 293.362L0.179669 293.362L0.17967 319.565L4.17967 319.565ZM4.17967 293.362C4.17967 285.59 6.19685 279.597 10.0377 275.173L7.01698 272.551C2.39426 277.876 0.179668 284.884 0.179669 293.362L4.17967 293.362ZM10.0473 275.162C13.789 270.786 19.1566 268.498 26.4531 268.498L26.4531 264.498C18.2444 264.498 11.6615 267.119 7.00733 272.562L10.0473 275.162ZM26.4531 268.498C31.2135 268.498 35.1398 269.503 38.3226 271.413L40.3805 267.983C36.4539 265.627 31.7813 264.498 26.4531 264.498L26.4531 268.498ZM38.3274 271.416C41.5067 273.311 43.9749 275.983 45.7416 279.485L49.313 277.684C47.2204 273.535 44.238 270.282 40.3757 267.98L38.3274 271.416ZM13.7383 293.971L13.7383 304.178L17.7383 304.178L17.7383 293.971L13.7383 293.971ZM15.7383 306.178L37.168 306.178L37.168 302.178L15.7383 302.178L15.7383 306.178ZM39.168 304.178L39.1679 293.971L35.1679 293.971L35.168 304.178L39.168 304.178ZM39.1679 293.971C39.1679 289.899 38.1747 286.436 35.9443 283.834L32.9072 286.437C34.333 288.1 35.1679 290.528 35.1679 293.971L39.1679 293.971ZM35.9426 283.832C33.6217 281.131 30.356 279.885 26.4531 279.885L26.4531 283.885C29.4565 283.885 31.5059 284.806 32.9089 286.439L35.9426 283.832ZM26.4531 279.885C22.5515 279.885 19.2931 281.131 17.0026 283.845L20.0598 286.425C21.4256 284.806 23.4485 283.885 26.4531 283.885L26.4531 279.885ZM17.0246 283.82C14.7528 286.422 13.7383 289.89 13.7383 293.971L17.7383 293.971C17.7383 290.536 18.5857 288.114 20.0379 286.45L17.0246 283.82ZM75 211.005L77 211.005L77 209.595L75.6725 209.121L75 211.005ZM75 229.134L75.6725 231.017L77 230.543L77 229.134L75 229.134ZM2.17967 255.134L0.179667 255.134L0.179667 257.971L2.85217 257.017L2.17967 255.134ZM2.17967 238.884L1.542 236.988L0.179666 237.446L0.179666 238.884L2.17967 238.884ZM51.9961 222.126L51.4066 220.215L51.3824 220.222L51.3584 220.23L51.9961 222.126ZM58.8008 220.044L59.3689 221.961L65.8408 220.044L59.3689 218.126L58.8008 220.044ZM51.9961 217.962L51.3601 219.858L51.3833 219.866L51.4066 219.873L51.9961 217.962ZM2.17966 201.255L0.179665 201.255L0.179665 202.693L1.54373 203.151L2.17966 201.255ZM2.17966 185.005L2.85217 183.121L0.179664 182.167L0.179664 185.005L2.17966 185.005ZM73 211.005L73 229.134L77 229.134L77 211.005L73 211.005ZM74.3275 227.25L1.50716 253.25L2.85217 257.017L75.6725 231.017L74.3275 227.25ZM4.17967 255.134L4.17967 238.884L0.179666 238.884L0.179667 255.134L4.17967 255.134ZM2.81734 240.779L52.6337 224.021L51.3584 220.23L1.542 236.988L2.81734 240.779ZM52.5855 224.037C56.2118 222.919 58.4679 222.228 59.3689 221.961L58.2326 218.126C57.3055 218.401 55.0251 219.099 51.4066 220.215L52.5855 224.037ZM59.3689 218.126C58.4679 217.859 56.2118 217.169 52.5855 216.051L51.4066 219.873C55.0251 220.989 57.3055 221.687 58.2326 221.961L59.3689 218.126ZM52.632 216.066L2.8156 199.359L1.54373 203.151L51.3601 219.858L52.632 216.066ZM4.17966 201.255L4.17966 185.005L0.179664 185.005L0.179665 201.255L4.17966 201.255ZM1.50716 186.888L74.3275 212.888L75.6725 209.121L2.85217 183.121L1.50716 186.888ZM75 153.683L77 153.683L77 151.683L75 151.683L75 153.683ZM75 169.07L75 171.07L77 171.07L77 169.07L75 169.07ZM2.17966 169.07L0.179663 169.07L0.179663 171.07L2.17966 171.07L2.17966 169.07ZM2.17966 153.683L2.17966 151.683L0.179662 151.683L0.179663 153.683L2.17966 153.683ZM73 153.683L73 169.07L77 169.07L77 153.683L73 153.683ZM75 167.07L2.17966 167.07L2.17966 171.07L75 171.07L75 167.07ZM4.17966 169.07L4.17966 153.683L0.179663 153.683L0.179663 169.07L4.17966 169.07ZM2.17966 155.683L75 155.683L75 151.683L2.17966 151.683L2.17966 155.683ZM65.9609 124.748L67.3751 126.162L65.9609 124.748ZM7.66404 120.38L6.0512 121.563L6.05756 121.572L7.66404 120.38ZM2.53513 110.275L0.629271 110.881L0.630891 110.886L2.53513 110.275ZM8.22263 75.2867L9.76121 76.5646L9.76474 76.5603L8.22263 75.2867ZM28.8398 64.1149L30.8398 64.1149L30.8398 61.7644L28.5197 62.1407L28.8398 64.1149ZM28.8398 79.8063L29.357 81.7382L30.8398 81.3412L30.8398 79.8063L28.8398 79.8063ZM18.7343 86.5094L20.3403 87.7015L20.3461 87.6935L18.7343 86.5094ZM21.7304 113.88L20.3674 115.344L20.3678 115.344L21.7304 113.88ZM55.5 113.88L56.857 115.35L56.8628 115.344L56.8686 115.339L55.5 113.88ZM58.4961 86.5094L60.1157 85.336L58.4961 86.5094ZM48.289 79.8063L46.289 79.8063L46.289 81.3505L47.783 81.7412L48.289 79.8063ZM48.289 63.7594L48.6353 61.7896L46.289 61.3772L46.289 63.7594L48.289 63.7594ZM68.9062 75.5914L70.4704 74.3451L70.4696 74.3441L68.9062 75.5914ZM74.4726 98.7477C74.4726 103.539 73.5897 108.052 71.8315 112.304L75.5279 113.832C77.4936 109.079 78.4726 104.045 78.4726 98.7477L74.4726 98.7477ZM71.8315 112.304C70.065 116.575 67.6355 120.245 64.5467 123.333L67.3751 126.162C70.8541 122.683 73.5704 118.566 75.5279 113.832L71.8315 112.304ZM64.5467 123.333C61.4698 126.41 57.6894 128.876 53.1716 130.716L54.6799 134.42C59.6413 132.4 63.8843 129.653 67.3751 126.162L64.5467 123.333ZM53.1716 130.716C48.6882 132.541 43.8344 133.463 38.5898 133.463L38.5898 137.463C44.314 137.463 49.6841 136.454 54.6799 134.42L53.1716 130.716ZM38.5898 133.463C34.4167 133.463 30.4567 132.864 26.7007 131.677L25.4946 135.491C29.6604 136.808 34.0286 137.463 38.5898 137.463L38.5898 133.463ZM26.7007 131.677C22.9325 130.485 19.6323 128.821 16.7802 126.698L14.3916 129.907C17.6333 132.32 21.3409 134.177 25.4946 135.491L26.7007 131.677ZM16.7802 126.698C13.8882 124.545 11.3869 122.043 9.27051 119.189L6.05756 121.572C8.40989 124.744 11.1899 127.523 14.3916 129.907L16.7802 126.698ZM9.27685 119.198C7.17299 116.329 5.5602 113.154 4.43937 109.664L0.630891 110.886C1.87985 114.776 3.68633 118.338 6.05123 121.563L9.27685 119.198ZM4.44098 109.669C3.31933 106.143 2.75779 102.506 2.75779 98.7477L-1.24221 98.7477C-1.24221 102.912 -0.618863 106.959 0.629278 110.881L4.44098 109.669ZM2.75779 98.7477C2.75778 89.451 5.14881 82.1182 9.76121 76.5646L6.68405 74.0089C1.34332 80.4396 -1.24222 88.7474 -1.24221 98.7477L2.75779 98.7477ZM9.76474 76.5603C14.3902 70.9594 20.8008 67.4446 29.16 66.089L28.5197 62.1407C19.3424 63.6288 12.0082 67.562 6.68052 74.0132L9.76474 76.5603ZM26.8398 64.1149L26.8398 79.8063L30.8398 79.8063L30.8398 64.1149L26.8398 64.1149ZM28.3226 77.8743C23.622 79.1327 19.8518 81.6105 17.1226 85.3253L20.3461 87.6935C22.4919 84.7729 25.4587 82.7819 29.357 81.7382L28.3226 77.8743ZM17.1284 85.3174C14.3887 89.0084 13.0781 93.5282 13.0781 98.7477L17.0781 98.7477C17.0781 94.2172 18.205 90.5781 20.3403 87.7014L17.1284 85.3174ZM13.0781 98.7477C13.0781 105.272 15.5342 110.843 20.3674 115.344L23.0935 112.417C19.0569 108.658 17.0781 104.14 17.0781 98.7477L13.0781 98.7477ZM20.3678 115.344C25.1903 119.833 31.3204 122.025 38.5898 122.025L38.5898 118.025C32.1821 118.025 27.0727 116.121 23.0931 112.417L20.3678 115.344ZM38.5898 122.025C45.8595 122.025 52.003 119.833 56.857 115.35L54.1429 112.411C50.1271 116.121 44.9972 118.025 38.5898 118.025L38.5898 122.025ZM56.8686 115.339C61.6666 110.836 64.1015 105.267 64.1015 98.7477L60.1015 98.7477C60.1015 104.146 58.1355 108.664 54.1313 112.422L56.8686 115.339ZM64.1015 98.7477C64.1015 93.5639 62.8091 89.0537 60.1157 85.336L56.8765 87.6828C58.9903 90.6005 60.1015 94.2492 60.1015 98.7477L64.1015 98.7477ZM60.1157 85.336C57.4099 81.6013 53.5916 79.1259 48.7951 77.8713L47.783 81.7412C51.7885 82.7888 54.7749 84.7821 56.8765 87.6828L60.1157 85.336ZM50.289 79.8063L50.289 63.7594L46.289 63.7594L46.289 79.8063L50.289 79.8063ZM47.9428 65.7292C56.1713 67.1756 62.5944 70.8874 67.3429 76.8388L70.4696 74.3441C65.0618 67.5663 57.7401 63.3901 48.6353 61.7896L47.9428 65.7292ZM67.342 76.8378C72.069 82.7703 74.4726 90.0339 74.4726 98.7477L78.4726 98.7477C78.4726 89.2479 75.832 81.0741 70.4704 74.3451L67.342 76.8378ZM75 0.648434L77 0.648433L77 -1.35157L75 -1.35157L75 0.648434ZM75 46.4023L75 48.4023L77 48.4023L77 46.4023L75 46.4023ZM2.17966 46.4023L0.179658 46.4023L0.179658 48.4023L2.17966 48.4023L2.17966 46.4023ZM2.17966 1.86719L2.17966 -0.132813L0.179656 -0.132813L0.179656 1.86719L2.17966 1.86719ZM16.3476 1.86719L18.3476 1.86719L18.3476 -0.132814L16.3476 -0.132814L16.3476 1.86719ZM16.3476 31.0156L14.3476 31.0156L14.3476 33.0156L16.3476 33.0156L16.3476 31.0156ZM29.8554 31.0156L29.8554 33.0156L31.8554 33.0156L31.8554 31.0156L29.8554 31.0156ZM29.8554 6.4375L29.8554 4.4375L27.8554 4.4375L27.8554 6.4375L29.8554 6.4375ZM44.0234 6.4375L46.0234 6.4375L46.0234 4.4375L44.0234 4.4375L44.0234 6.4375ZM44.0234 31.0156L42.0234 31.0156L42.0234 33.0156L44.0234 33.0156L44.0234 31.0156ZM60.832 31.0156L60.832 33.0156L62.832 33.0156L62.832 31.0156L60.832 31.0156ZM60.832 0.648434L60.832 -1.35157L58.832 -1.35157L58.832 0.648434L60.832 0.648434ZM73 0.648434L73 46.4023L77 46.4023L77 0.648433L73 0.648434ZM75 44.4023L2.17966 44.4023L2.17966 48.4023L75 48.4023L75 44.4023ZM4.17966 46.4023L4.17966 1.86719L0.179656 1.86719L0.179658 46.4023L4.17966 46.4023ZM2.17966 3.86719L16.3476 3.86719L16.3476 -0.132814L2.17966 -0.132813L2.17966 3.86719ZM14.3476 1.86719L14.3476 31.0156L18.3476 31.0156L18.3476 1.86719L14.3476 1.86719ZM16.3476 33.0156L29.8554 33.0156L29.8554 29.0156L16.3476 29.0156L16.3476 33.0156ZM31.8554 31.0156L31.8554 6.4375L27.8554 6.4375L27.8554 31.0156L31.8554 31.0156ZM29.8554 8.4375L44.0234 8.4375L44.0234 4.4375L29.8554 4.4375L29.8554 8.4375ZM42.0234 6.4375L42.0234 31.0156L46.0234 31.0156L46.0234 6.4375L42.0234 6.4375ZM44.0234 33.0156L60.832 33.0156L60.832 29.0156L44.0234 29.0156L44.0234 33.0156ZM62.832 31.0156L62.832 0.648434L58.832 0.648434L58.832 31.0156L62.832 31.0156ZM60.832 2.64843L75 2.64843L75 -1.35157L60.832 -1.35157L60.832 2.64843Z" fill="#5B5B5B"/>
</svg>
