<svg width="120" height="120" viewBox="0 0 120 120" fill="none" xmlns="http://www.w3.org/2000/svg">
<g id="Group 189">
<path id="Rectangle 31" d="M120 60C120 26.8629 93.1371 0 60 0C26.8629 0 0 26.8629 0 60C0 93.1371 26.8629 120 60 120H120V60Z" fill="#23222D"/>
<circle id="Ellipse 33" cx="60" cy="60" r="36" fill="#077151"/>
<g id="g3093">
<g id="g3095">
<g id="Clip path group">
<mask id="mask0_543_115" style="mask-type:luminance" maskUnits="userSpaceOnUse" x="40" y="40" width="40" height="40">
<g id="clipPath3101">
<path id="path3099" d="M40 40H80V80H40V40Z" fill="white"/>
</g>
</mask>
<g mask="url(#mask0_543_115)">
<g id="g3097">
<g id="g3103">
<path id="path3105" d="M71.7187 60C71.7187 66.4721 66.4721 71.7188 60 71.7188C53.5279 71.7188 48.2812 66.4721 48.2812 60C48.2812 53.5279 53.5279 48.2812 60 48.2812C66.4721 48.2812 71.7187 53.5279 71.7187 60Z" stroke="white" stroke-width="2.34375" stroke-miterlimit="10" stroke-linecap="round" stroke-linejoin="round"/>
</g>
<g id="g3107">
<path id="path3109" d="M65.8594 56.4844L58.8281 63.5156L54.1406 58.8281" stroke="white" stroke-width="2.34375" stroke-miterlimit="10" stroke-linecap="round" stroke-linejoin="round"/>
</g>
<g id="g3111">
<path id="path3113" d="M58.4801 41.7314C59.3561 40.9854 60.6439 40.9854 61.5198 41.7314L64.5654 44.4193L69.7192 44.0205C70.8664 43.9318 71.9083 44.6887 72.1783 45.8072L73.2116 50.0865L77.7147 52.782C78.6949 53.3845 79.0929 54.6093 78.654 55.6729L76.875 59.9836L78.654 64.2943C79.0929 65.3579 78.6949 66.5827 77.7147 67.1852L73.2116 69.8807L72.1783 74.16C71.9083 75.2784 70.8664 76.0354 69.7192 75.9467L64.6158 75.5517L61.5198 78.2686C60.6439 79.0146 59.3561 79.0146 58.4801 78.2686L55.3842 75.5517L50.2808 75.9467C49.1336 76.0354 48.0916 75.2784 47.8216 74.16L46.7842 69.8637L42.2887 67.1852C41.3084 66.5827 40.9105 65.3579 41.3495 64.2943L43.1284 59.9836L41.3495 55.6729C40.9105 54.6093 41.3084 53.3845 42.2887 52.782L46.3989 50.3402L47.8216 45.8072C48.0916 44.6887 49.1336 43.9318 50.2808 44.0205L55.4347 44.4193L58.4801 41.7314Z" stroke="white" stroke-width="2.34375" stroke-miterlimit="10" stroke-linecap="round" stroke-linejoin="round"/>
</g>
</g>
</g>
</g>
</g>
</g>
</g>
</svg>
