<svg width="120" height="120" viewBox="0 0 120 120" fill="none" xmlns="http://www.w3.org/2000/svg">
<g id="Group 188">
<path id="Rectangle 30" d="M0 60C0 26.8629 26.8629 0 60 0C93.1371 0 120 26.8629 120 60C120 93.1371 93.1371 120 60 120H0V60Z" fill="#23222D"/>
<circle id="Ellipse 32" cx="60" cy="60" r="36" fill="#077151"/>
<g id="Group">
<path id="Vector" d="M79.5686 42.4088C79.5635 42.3937 79.5535 42.3736 79.5485 42.3586C79.5434 42.3435 79.5334 42.3284 79.5284 42.3184C79.3425 41.9066 79.0913 41.545 78.7749 41.2286C78.6292 41.0829 78.4584 40.9373 78.2625 40.8067C78.2575 40.8017 78.2524 40.8017 78.2474 40.7967C78.2072 40.7716 78.1671 40.7414 78.1269 40.7163C76.3386 39.5813 73.41 39.7972 69.753 41.3491C65.8198 43.0215 61.6002 45.9997 57.8578 49.7412L57.6418 49.9572L49.9009 50.4745L40 60.3732L49.273 62.8542C49.0872 63.3363 48.9365 63.7532 48.8209 64.0947L48.5999 64.7425L51.1467 67.2888L50.9307 67.5048C50.132 66.8268 49.3886 66.4099 48.6501 66.204C47.7158 65.9428 46.3243 65.9177 44.963 67.2788C43.6369 68.6096 42.6372 70.729 41.9993 73.5816C41.5371 75.6407 41.4417 77.3232 41.4367 77.3935L41.3714 78.6239L42.6021 78.5586C42.6724 78.5536 44.3552 78.4582 46.4148 77.9961C49.268 77.3583 51.3878 76.3639 52.719 75.033C54.0753 73.672 54.0552 72.2758 53.794 71.3467C53.588 70.6085 53.1661 69.8702 52.4879 69.0717L52.7039 68.8557L55.2507 71.397L55.8988 71.176C56.2353 71.0605 56.6522 70.9148 57.1295 70.729L59.611 80L69.5119 70.1012L70.0293 62.362C70.1047 62.2867 70.18 62.2164 70.2503 62.141C73.9927 58.3995 76.9715 54.1758 78.6443 50.2485C80.0558 46.9338 80.3673 44.2218 79.5686 42.4088ZM44.2698 59.2332L50.8755 52.624L55.517 52.3176C52.9551 55.4063 51.2422 58.4598 50.1521 60.8102L44.2698 59.2332ZM51.1568 73.4611C50.1471 74.4706 48.3538 75.2892 45.9677 75.8265C45.1439 76.0124 44.3803 76.1329 43.7775 76.2133C43.8579 75.6106 43.9785 74.8472 44.1643 74.0236C44.7018 71.638 45.5206 69.8451 46.5303 68.8356C46.9723 68.3887 47.3441 68.2631 47.6605 68.2631C47.8062 68.2631 47.9368 68.2882 48.0574 68.3234C48.4391 68.4288 48.8762 68.6799 49.3634 69.0717L48.831 69.604C48.399 70.0359 48.399 70.734 48.831 71.1659C49.047 71.3819 49.3333 71.4874 49.6146 71.4874C49.8959 71.4874 50.1772 71.3769 50.3932 71.1659L50.9257 70.6336C51.3125 71.1207 51.5636 71.5526 51.6691 71.9343C51.7746 72.3261 51.8048 72.8132 51.1568 73.4611ZM67.367 69.1219L60.7613 75.7261L59.184 69.8451C61.5349 68.7553 64.5891 67.0427 67.6734 64.4864L67.367 69.1219ZM68.6981 60.5791C66.6185 62.6583 64.2324 64.5065 61.6052 66.0734C60.0882 66.9774 58.7018 67.6655 57.5263 68.1777C57.466 68.1978 57.4057 68.2229 57.3455 68.2531C56.7929 68.4891 56.2855 68.69 55.8385 68.8557L54.2712 67.2888L61.7459 59.8158C62.1779 59.3838 62.1779 58.6858 61.7459 58.2539C61.3139 57.8219 60.6156 57.8219 60.1836 58.2539L52.709 65.7269L51.1417 64.16C51.3075 63.708 51.5084 63.1957 51.7495 62.6382C51.7796 62.583 51.8048 62.5227 51.8299 62.4574C52.3423 61.2822 53.0304 59.9011 53.9346 58.3945C55.5019 55.7679 57.3505 53.3823 59.4301 51.3081C62.8661 47.873 66.6989 45.1308 70.2754 43.5388C70.7928 45.1057 71.6619 46.527 72.8323 47.6922C73.8319 48.6916 75.0325 49.4851 76.3436 50.0174C74.7361 53.5129 72.0436 57.2343 68.6981 60.5791ZM76.9163 47.8579C75.9769 47.4461 75.128 46.8635 74.3895 46.1252C73.5004 45.2413 72.8273 44.1615 72.4154 42.9763C74.3142 42.2581 75.8513 42.0874 76.7505 42.4791C76.9263 42.5595 77.082 42.6649 77.2126 42.7955C77.3382 42.9211 77.4387 43.0717 77.519 43.2375C77.941 44.1766 77.73 45.8189 76.9163 47.8579Z" fill="white"/>
<path id="Vector_2" d="M65.6085 50.3633C64.5335 50.3633 63.5238 50.7851 62.7653 51.5435C61.198 53.1104 61.198 55.6667 62.7653 57.2337C63.5489 58.0171 64.5787 58.4089 65.6085 58.4089C66.6383 58.4089 67.668 58.0171 68.4517 57.2337C70.0189 55.6667 70.0189 53.1104 68.4517 51.5435C67.6932 50.7801 66.6835 50.3633 65.6085 50.3633ZM66.8945 55.6768C66.1862 56.3849 65.0358 56.3849 64.3275 55.6768C63.6193 54.9686 63.6193 53.8186 64.3275 53.1104C64.6691 52.7689 65.1263 52.5781 65.6085 52.5781C66.0907 52.5781 66.5478 52.7639 66.8945 53.1104C67.6027 53.8186 67.6027 54.9686 66.8945 55.6768Z" fill="white"/>
</g>
</g>
</svg>
