<svg
  width="397"
  height="663"
  viewBox="0 0 397 663"
  fill="none"
  xmlns="http://www.w3.org/2000/svg"
>
  <path
    d="M322.012 470.146H67.2277C45.8116 470.146 28.3887 452.723 28.3887 431.307V176.523C28.3887 155.107 45.8116 137.684 67.2277 137.684H322.012C343.428 137.684 360.851 155.107 360.851 176.523V431.307C360.851 452.723 343.428 470.146 322.012 470.146ZM67.2277 143.898C49.2095 143.898 34.6029 158.504 34.6029 176.523V431.307C34.6029 449.325 49.2095 463.931 67.2277 463.931H245.698C305.863 463.931 354.637 415.158 354.637 354.993V176.523C354.637 158.504 340.03 143.898 322.012 143.898L67.2277 143.898Z"
    fill="#23222D"
  />
  <path
    d="M94.6947 170.395C82.636 170.395 72.8262 180.204 72.8262 192.263V226.492C72.8262 238.551 82.636 248.361 94.6947 248.361H128.924C140.982 248.361 150.792 238.551 150.792 226.492V192.263C150.792 180.204 140.982 170.395 128.924 170.395H94.6947Z"
    fill="#23222D"
  />
  <path
    d="M94.6947 266.754C82.636 266.754 72.8262 276.564 72.8262 288.622V322.852C72.8262 334.91 82.636 344.72 94.6947 344.72H128.924C140.982 344.72 150.792 334.91 150.792 322.852V288.622C150.792 276.564 140.982 266.754 128.924 266.754H94.6947Z"
    fill="#23222D"
  />
  <path
    d="M94.6947 363.111C82.636 363.111 72.8262 372.921 72.8262 384.98V419.209C72.8262 431.268 82.636 441.077 94.6947 441.077H128.924C140.982 441.077 150.792 431.268 150.792 419.209V384.98C150.792 372.921 140.982 363.111 128.924 363.111H94.6947Z"
    fill="#23222D"
  />
  <path
    d="M117.393 86.8828C102.199 86.8828 89.8379 99.2435 89.8379 114.438V157.567C89.8379 172.762 102.199 185.122 117.393 185.122H160.523C175.717 185.122 188.078 172.762 188.078 157.567V114.438C188.078 99.2435 175.717 86.8828 160.523 86.8828H117.393Z"
    fill="#004929"
  />
  <path
    d="M259.387 207.412C244.193 207.412 231.832 219.773 231.832 234.967V278.097C231.832 293.291 244.193 305.652 259.387 305.652H302.517C317.711 305.652 330.072 293.291 330.072 278.097V234.967C330.072 219.773 317.711 207.412 302.517 207.412H259.387Z"
    fill="#004929"
  />
  <path
    d="M197.656 641.529L188.894 641.455L185.016 606.871L197.947 606.98L197.656 641.529Z"
    fill="#A0616A"
  />
  <path
    d="M169.59 655.461C169.571 657.618 171.309 659.393 173.474 659.413L190.894 659.558L193.944 653.377L195.064 659.59L201.637 659.649L199.978 637.489L197.691 637.337L188.363 636.694L185.353 636.492L185.301 642.762L171.307 652.254C170.242 652.977 169.601 654.175 169.59 655.461Z"
    fill="#2F2E41"
  />
  <path
    d="M242.236 641.529L233.474 641.455L229.596 606.871L242.527 606.98L242.236 641.529Z"
    fill="#A0616A"
  />
  <path
    d="M214.17 655.461C214.151 657.618 215.89 659.393 218.054 659.413L235.475 659.558L238.524 653.377L239.644 659.59L246.218 659.649L244.558 637.489L242.271 637.337L232.943 636.694L229.933 636.492L229.881 642.762L215.887 652.254C214.822 652.977 214.181 654.175 214.17 655.461Z"
    fill="#2F2E41"
  />
  <path
    d="M163.274 361.92L198.79 363.041L232.436 370.519C232.436 370.519 229.072 374.631 240.287 385.847C240.287 385.847 255.241 412.016 244.774 437.438L240.287 539.126C240.287 539.126 253.368 610.81 243.374 633.624L230.165 634.449L207.814 539.953L196.92 438.186L191.686 538.378C191.686 538.378 211.71 607.149 199.066 634.449L184.76 633.624L160.283 538.378C160.283 538.378 149.815 428.466 151.31 407.53C152.806 386.594 163.274 361.92 163.274 361.92Z"
    fill="#2F2E41"
  />
  <path
    d="M282.543 201.237C277.688 202.495 274.771 207.45 276.028 212.305C276.604 214.529 277.962 216.339 279.725 217.535L279.725 217.547L279.036 234.23L291.803 240.138L292.822 214.466L292.733 214.469C293.84 212.497 294.222 210.114 293.611 207.752C292.353 202.897 287.398 199.98 282.543 201.237Z"
    fill="#A0616A"
  />
  <path
    d="M211.19 260.778C208.508 258.12 206.952 254.515 206.894 250.596C206.816 245.338 209.451 240.566 213.942 237.831C219.114 234.681 225.582 235 230.42 238.642L270.509 268.826L277.652 225.344L292.988 230.281L289.329 286.901C289.073 290.862 286.834 294.351 283.341 296.234C279.847 298.118 275.703 298.071 272.253 296.108L214.318 263.147C213.154 262.485 212.106 261.686 211.19 260.778Z"
    fill="#3F3D56"
  />
  <path
    d="M150.061 176.917C152.624 181.228 151.207 186.8 146.896 189.363C144.921 190.537 142.682 190.867 140.588 190.474L140.58 190.483L129.323 202.816L116.098 198.023L133.448 179.074L133.51 179.139C134.112 176.959 135.518 174.998 137.615 173.751C141.926 171.188 147.499 172.606 150.061 176.917Z"
    fill="#A0616A"
  />
  <path
    d="M154.924 268.915L90.5756 251.533C86.7442 250.498 83.7677 247.614 82.6128 243.816C81.458 240.019 82.325 235.966 84.9315 232.973L122.197 190.188L136.564 197.479L111.022 233.387L160.743 240.177C166.742 240.997 171.56 245.324 173.015 251.202C174.279 256.307 172.79 261.551 169.033 265.229C166.232 267.972 162.59 269.436 158.814 269.435C157.524 269.435 156.217 269.264 154.924 268.915Z"
    fill="#3F3D56"
  />
  <path
    d="M246.665 376.879L156.681 381.007C154.21 377.254 154.879 371.611 158.34 364.544C171.408 337.863 161.483 287.387 154.807 261.103C152.934 253.729 157.962 246.398 165.533 245.641L174.017 244.792L181.86 220.852H209.327L220.722 233.87L240.061 245.618C236.541 281.875 221.543 333.074 242.91 358.75C247.583 364.366 248.908 370.438 246.665 376.879Z"
    fill="#3F3D56"
  />
  <path
    d="M192.1 221.404C206.875 221.404 218.854 209.426 218.854 194.65C218.854 179.875 206.875 167.896 192.1 167.896C177.324 167.896 165.346 179.875 165.346 194.65C165.346 209.426 177.324 221.404 192.1 221.404Z"
    fill="#A0616A"
  />
  <path
    d="M222.373 177.527C226.096 163.956 185.527 152.319 177.643 163.248C176.547 161.694 172.495 160.75 170.637 161.227C168.778 161.704 167.214 162.895 165.689 164.049C163.592 165.66 161.419 167.328 160.132 169.644C158.835 171.951 158.635 175.097 160.38 177.099C161.762 178.69 164.191 187.15 166.269 187.569C167.718 187.865 168.938 188.103 169.986 188.275C170.921 186.912 173.303 185.199 173.131 183.55C174.542 184.484 174.027 186.128 173.742 187.808C172.795 193.401 151.456 236.701 163.678 223.941C164.888 224.656 166.385 225.323 168.11 225.933C171.037 221.52 173.439 216.315 175.022 210.872L175.033 210.973C175.578 215.703 179.034 219.584 183.608 220.909C201.954 226.224 216.794 218.425 221.899 204.361C220.03 200.567 219.216 200.979 219.383 200.866C221.716 199.294 224.922 200.322 225.925 202.951C226.221 203.726 226.489 204.387 226.722 204.885C229.382 195.372 232.545 196.745 222.373 177.527Z"
    fill="#2F2E41"
  />
  <path
    d="M209.717 167.681L207.843 158.1C207.685 157.295 207.536 156.421 207.899 155.685C208.365 154.739 209.565 154.347 210.608 154.498C211.652 154.649 212.432 155.602 213.471 155.786C217.081 156.424 221.852 152.858 223.146 161.879C223.685 165.64 229.686 166.037 231.691 169.265C233.695 172.492 233.941 177.152 231.206 179.789C229.021 181.895 225.513 182.138 222.675 181.062C219.838 179.986 217.561 177.813 215.572 175.521C213.583 173.23 211.782 170.75 209.488 168.764"
    fill="#2F2E41"
  />
  <path
    d="M223.802 182.252C216.481 181.23 211.491 178.567 208.97 174.34C205.671 168.805 207.881 162.712 207.977 162.455L209.524 163.03C209.504 163.086 207.499 168.664 210.397 173.508C212.652 177.277 217.239 179.669 224.03 180.617L223.802 182.252Z"
    fill="#004929"
  />
  <path
    d="M258.033 78.0668C236.512 78.0668 219 60.5551 219 39.0334C219 17.5117 236.512 0 258.033 0C279.555 0 297.067 17.5117 297.067 39.0334C297.067 60.5551 279.555 78.0668 258.033 78.0668ZM258.033 15.6134C245.119 15.6134 234.613 26.1188 234.613 39.0334C234.613 51.948 245.119 62.4534 258.033 62.4534C270.948 62.4534 281.453 51.948 281.453 39.0334C281.453 26.1188 270.948 15.6134 258.033 15.6134Z"
    fill="#004929"
  />
  <path
    d="M318.214 105.258C316.301 105.258 314.383 104.56 312.878 103.146L276.242 68.8128C273.093 65.8662 272.933 60.926 275.884 57.7813C278.826 54.625 283.766 54.4688 286.915 57.4229L323.551 91.7563C326.699 94.7029 326.86 99.6431 323.909 102.788C322.373 104.431 320.295 105.258 318.214 105.258Z"
    fill="#004929"
  />
  <path
    d="M327.062 640.653C329.716 640.819 331.183 637.521 329.175 635.599L328.975 634.805C329.001 634.742 329.028 634.678 329.054 634.615C331.739 628.214 340.836 628.258 343.497 634.668C345.859 640.358 348.867 646.057 349.607 652.072C349.939 654.727 349.79 657.433 349.201 660.038C354.736 647.948 357.648 634.745 357.648 621.468C357.648 618.132 357.466 614.796 357.092 611.468C356.785 608.747 356.362 606.041 355.814 603.361C352.852 588.872 346.437 575.072 337.185 563.546C332.737 561.114 329.028 557.314 326.787 552.758C325.982 551.115 325.351 549.347 325.053 547.547C325.559 547.613 326.961 539.904 326.58 539.431C327.285 538.361 328.548 537.828 329.318 536.784C333.15 531.589 338.429 532.496 341.185 539.556C347.072 542.527 347.129 547.454 343.516 552.194C341.218 555.209 340.902 559.289 338.886 562.517C339.093 562.782 339.309 563.04 339.517 563.305C343.321 568.185 346.611 573.429 349.385 578.939C348.601 572.816 349.759 565.438 351.732 560.683C353.978 555.265 358.188 550.701 361.895 546.017C366.348 540.391 375.48 542.846 376.264 549.978C376.272 550.048 376.279 550.117 376.286 550.186C375.736 550.496 375.196 550.826 374.669 551.175C371.664 553.163 372.702 557.822 376.264 558.372L376.344 558.384C376.145 560.367 375.805 562.334 375.307 564.268C380.063 582.661 369.795 589.36 355.134 589.66C354.81 589.826 354.495 589.992 354.171 590.15C355.657 594.332 356.843 598.623 357.723 602.971C358.511 606.813 359.059 610.697 359.366 614.597C359.748 619.518 359.715 624.463 359.3 629.376L359.325 629.202C360.378 623.791 363.316 618.738 367.581 615.236C373.936 610.016 382.913 608.094 389.768 603.898C393.067 601.879 397.296 604.489 396.72 608.314L396.692 608.498C395.671 608.912 394.675 609.394 393.713 609.933C393.162 610.244 392.623 610.574 392.096 610.922C389.09 612.91 390.129 617.57 393.69 618.119L393.771 618.132C393.829 618.14 393.879 618.149 393.937 618.157C392.186 622.314 389.746 626.173 386.692 629.501C383.719 645.557 370.946 647.08 357.283 642.404H357.275C355.781 648.91 353.599 655.267 350.794 661.325H327.642C327.559 661.067 327.484 660.802 327.409 660.544C329.55 660.677 331.708 660.553 333.816 660.163C332.098 658.055 330.38 655.931 328.662 653.823C328.621 653.781 328.588 653.74 328.555 653.698C327.683 652.62 326.804 651.549 325.932 650.47L325.932 650.469C325.877 647.157 326.275 643.856 327.062 640.653Z"
    fill="#23222D"
  />
  <path
    d="M0 661.689C0 662.046 0.380737 662.332 0.854857 662.332H396.145C396.619 662.332 397 662.046 397 661.689C397 661.333 396.619 661.047 396.145 661.047H0.854857C0.380737 661.047 0 661.333 0 661.689Z"
    fill="#23222D"
  />
</svg>
